<svg id="visual" viewBox="0 0 900 200" width="900" height="200" xmlns="http://www.w3.org/2000/svg" xmlns:xlink="http://www.w3.org/1999/xlink" version="1.1">
<rect x="0" y="0" width="900" height="200" fill="none"></rect>
<path d="M0 150L10 149C20 148 40 146 60 132.3C80 118.7 100 93.3 120 81.8C140 70.3 160 72.7 180 88.5C200 104.3 220 133.7 240 149.5C260 165.3 280 167.7 300 163.2C320 158.7 340 147.3 360 133.3C380 119.3 400 102.7 420 108.3C440 114 460 142 480 154.5C500 167 520 164 540 156.7C560 149.3 580 137.7 600 128.7C620 119.7 640 113.3 660 100.8C680 88.3 700 69.7 720 76.8C740 84 760 117 780 119C800 121 820 92 840 93C860 94 880 125 890 140.5L900 156L900 201L890 201C880 201 860 201 840 201C820 201 800 201 780 201C760 201 740 201 720 201C700 201 680 201 660 201C640 201 620 201 600 201C580 201 560 201 540 201C520 201 500 201 480 201C460 201 440 201 420 201C400 201 380 201 360 201C340 201 320 201 300 201C280 201 260 201 240 201C220 201 200 201 180 201C160 201 140 201 120 201C100 201 80 201 60 201C40 201 20 201 10 201L0 201Z" fill="#237841" stroke-linecap="round" stroke-linejoin="miter"></path></svg>