<svg id="visual" viewBox="0 0 900 200" width="900" height="200" xmlns="http://www.w3.org/2000/svg" xmlns:xlink="http://www.w3.org/1999/xlink" version="1.1">
<rect x="0" y="0" width="900" height="200" fill="none"></rect>
<path d="M0 47L10 48.3C20 49.7 40 52.3 60 60.7C80 69 100 83 120 80.2C140 77.3 160 57.7 180 65.5C200 73.3 220 108.7 240 115.5C260 122.3 280 100.7 300 96.2C320 91.7 340 104.3 360 102.5C380 100.7 400 84.3 420 83C440 81.7 460 95.3 480 100.5C500 105.7 520 102.3 540 94.7C560 87 580 75 600 74.7C620 74.3 640 85.7 660 98.8C680 112 700 127 720 123.2C740 119.3 760 96.7 780 79.5C800 62.3 820 50.7 840 58.5C860 66.3 880 93.7 890 107.3L900 121L900 0L890 0C880 0 860 0 840 0C820 0 800 0 780 0C760 0 740 0 720 0C700 0 680 0 660 0C640 0 620 0 600 0C580 0 560 0 540 0C520 0 500 0 480 0C460 0 440 0 420 0C400 0 380 0 360 0C340 0 320 0 300 0C280 0 260 0 240 0C220 0 200 0 180 0C160 0 140 0 120 0C100 0 80 0 60 0C40 0 20 0 10 0L0 0Z" fill="#237841" stroke-linecap="round" stroke-linejoin="miter"></path></svg>